<svg xmlns="http://www.w3.org/2000/svg" viewBox="0 0 200 200">
  <defs>
    <linearGradient id="bg" x1="0" y1="0" x2="0" y2="1">
      <stop offset="0%" stop-color="#4daacb"/>
      <stop offset="55%" stop-color="#216883"/>
      <stop offset="100%" stop-color="#123e54"/>
    </linearGradient>
    <linearGradient id="wave1" x1="0" y1="0" x2="1" y2="0">
      <stop offset="0%" stop-color="#4daacb"/>
      <stop offset="100%" stop-color="#2e6043"/>
    </linearGradient>
    <clipPath id="squircle"><rect x="0" y="0" width="200" height="200" rx="44"/></clipPath>
  </defs>
  <g clip-path="url(#squircle)">
    <rect width="200" height="200" fill="url(#bg)"/>
    <path d="M -10 158 Q 30 145 60 158 T 130 158 T 210 158 V 210 H -10 Z" fill="#d1e8f0" opacity="0.9"/>
    <path d="M -10 172 Q 35 160 70 172 T 140 172 T 210 172 V 210 H -10 Z" fill="url(#wave1)" opacity="0.55"/>
    <path d="M 78 158 L 122 158 L 130 168 L 70 168 Z" fill="#123e54"/>
    <path d="M 88 158 L 112 158 L 108 96 L 92 96 Z" fill="#f5f0e5"/>
    <path d="M 89.4 130 L 110.6 130 L 108.9 118 L 91.1 118 Z" fill="#da9b2f"/>
    <rect x="86" y="93" width="28" height="6" rx="1.5" fill="#123e54"/>
    <rect x="91" y="76" width="18" height="17" rx="2" fill="#216883" stroke="#f5f0e5" stroke-width="2"/>
    <circle cx="100" cy="84.5" r="4.2" fill="#fff2cf"/>
    <path d="M 88 76 L 100 62 L 112 76 Z" fill="#da9b2f"/>
    <circle cx="100" cy="61" r="2.6" fill="#f5f0e5"/>
    <path d="M 100 68 L 68 48" stroke="#fff2cf" stroke-width="3" stroke-linecap="round" opacity="0.85"/>
    <path d="M 100 68 L 132 48" stroke="#fff2cf" stroke-width="3" stroke-linecap="round" opacity="0.85"/>
  </g>
</svg>
